<svg xmlns="http://www.w3.org/2000/svg" version="1.1" xmlns:xlink="http://www.w3.org/1999/xlink" xmlns:svgjs="http://svgjs.dev/svgjs" width="100%" height="100%" viewBox="0 0 1000 600"><rect width="1000" height="600" x="0" y="0" fill="#232f3e"/><g><rect width="333.3333333333333" height="333.3333333333333" rx="13.333333333333334" ry="13.333333333333334" y="423.76429491476716" fill="#ec8b5e" transform="matrix(0.31129991324744277,0,0,0.31129991324744277,0,116.19890144585241)" x="401.542236328125"/><path d="M554.9071213868347 515.6447705167476Q591.1930097568784 515.6447705167476 614.8338158161494 530.7333469938534Q638.4746218754203 545.79137979388 638.4746218754203 586.6893634028772L638.4746218754203 586.6893634028772Q638.4746218754203 633.0852088861234 611.9627101707082 648.9373772902082Q585.4813421430752 664.7590020172138 554.9071213868347 664.7590020172138L554.9071213868347 664.7590020172138Q514.4367492569456 664.7590020172138 497.9431636341985 665.4309629129555L497.9431636341985 665.4309629129555Q497.9431636341985 659.0473344034107 499.0427360090483 655.9624230184154L499.0427360090483 655.9624230184154Q505.2125587790389 655.534811539307 508.3891011952717 653.7632782687158Q511.5961872885837 651.9917449981244 513.0011964342251 647.5018244674876Q514.4367492569456 642.9813602597717 514.4367492569456 634.3985870005274L514.4367492569456 634.3985870005274L514.4367492569456 544.0198465232886Q514.4367492569456 533.0241227747905 511.2602068407129 529.1756194628161Q508.05312074740095 525.3271161508418 499.25654174860244 524.8995046717336L499.25654174860244 524.8995046717336Q498.15696937375264 521.8145932867383 498.15696937375264 515.4309647771935L498.15696937375264 515.4309647771935Q508.2974701640342 516.102925672935 528.9449958695474 516.102925672935L528.9449958695474 516.102925672935L541.926058628191 515.8891199333809Q546.3243481275903 515.6447705167476 554.9071213868347 515.6447705167476L554.9071213868347 515.6447705167476ZM554.9071213868347 654.8628506435655Q583.4960031329297 654.8628506435655 599.6536083078062 640.0186235830931Q615.8112134826825 625.1743965226206 615.8112134826825 589.9880805274266L615.8112134826825 589.9880805274266Q615.8112134826825 567.3246721346889 606.9230034526465 552.4804450742163Q598.0042497455314 537.6362180137439 583.4960031329297 530.8249780250909Q568.987756520328 524.0137380364379 551.394598522731 524.0137380364379L551.394598522731 524.0137380364379Q547.4239205024401 524.0137380364379 542.68965055517 524.5635242238627Q537.9859242849791 525.1133104112877 535.114818639538 525.9990770465834L535.114818639538 525.9990770465834L535.114818639538 634.3985870005274Q535.114818639538 642.9813602597717 536.6420024934961 647.1658440196169Q538.1997300245333 651.350327779462 542.3842137843784 653.0913173729741Q546.5381538671444 654.8628506435655 554.9071213868347 654.8628506435655L554.9071213868347 654.8628506435655Z " fill="#141a46" transform="matrix(0.31129991324744277,0,0,0.31129991324744277,0,116.19890144585241)"/><path d="M930.4351699940837 654.6261219613771Q931.4724346613049 657.7379159630406 931.4724346613049 663.9615039663676L931.4724346613049 663.9615039663676Q923.1743173235357 663.5581232624481 910.1220702610026 663.5581232624481L910.1220702610026 663.5581232624481Q896.407126327745 663.5581232624481 888.1090089899758 663.9615039663676L888.1090089899758 663.9615039663676Q888.1090089899758 657.5362256110809 889.3767769165794 654.6261219613771L889.3767769165794 654.6261219613771Q894.130906641343 654.021050905498 896.1189972535169 652.8685346085856Q898.078274958268 651.7448312190961 898.078274958268 649.4397986252712L898.078274958268 649.4397986252712Q898.078274958268 647.5957725502114 896.0037456238257 643.0145202699846L896.0037456238257 643.0145202699846L891.854686954941 634.1113318763363Q861.975701957487 634.1113318763363 844.7743962260694 635.1485965435575L844.7743962260694 635.1485965435575L842.4693636322445 640.536610231623Q840.3948342978022 645.2907399563866 840.3948342978022 647.9991532541308L840.3948342978022 647.9991532541308Q840.3948342978022 653.8193605535384 848.923454894954 654.6261219613771L848.923454894954 654.6261219613771Q850.1624099141349 658.3717999263424 850.1624099141349 663.9615039663676L850.1624099141349 663.9615039663676Q842.267673280285 663.5581232624481 832.9322912752943 663.5581232624481L832.9322912752943 663.5581232624481Q824.8358642894848 663.5581232624481 818.2088955822385 663.9615039663676L818.2088955822385 663.9615039663676Q818.2088955822385 659.0056838896442 819.4478506014193 654.6261219613771L819.4478506014193 654.6261219613771Q824.0291028816462 653.8193605535384 826.5070129200078 650.7940052741433Q828.9849229583695 647.7974629021711 833.1339816272541 638.6637712491403L833.1339816272541 638.6637712491403L868.8331739241157 559.6299661883722Q872.7805422410408 558.7943918731107 877.131291261885 558.7943918731107L877.131291261885 558.7943918731107L915.3083935971084 638.0298872858384Q919.8608329699125 647.5957725502114 923.0878786012672 650.9092569038346Q926.2861113251992 654.2227412574578 930.4351699940837 654.6261219613771L930.4351699940837 654.6261219613771ZM848.923454894954 625.5827112791844L887.7056282860564 625.5827112791844L875.2584522794025 599.4494042466957Q869.870438591337 588.4716865186051 867.7959092568947 582.0175952558957L867.7959092568947 582.0175952558957Q866.1247606263717 587.2039185920014 863.7332893102785 592.3038032058389Q861.3706309016079 597.3748749122534 860.7367469383062 598.6138299314342L860.7367469383062 598.6138299314342L848.923454894954 625.5827112791844ZM1036.2361660506424 559.8316565403319Q1044.3325930364522 559.8316565403319 1054.7052397086636 559.4282758364125L1054.7052397086636 559.4282758364125Q1054.7052397086636 565.0179798764377 1053.6679750414423 568.3314642300609L1053.6679750414423 568.3314642300609Q1045.3698577036732 569.8009225086241 1038.5123857370445 585.5615828689013L1038.5123857370445 585.5615828689013Q1022.1466543208882 621.6641558696823 1000.3640963092438 663.7598136144079L1000.3640963092438 663.7598136144079Q997.2523023075803 664.797078281629 992.2676693234342 664.797078281629L992.2676693234342 664.797078281629Q972.9630213501515 622.9031108888631 954.4939476921302 587.2039185920014L954.4939476921302 587.2039185920014Q949.9415083193262 578.0990398463935 947.9822306145751 574.8719942150387Q945.9941400024012 571.644948583684 944.0348622976501 570.2043032125434Q942.0467716854762 568.7636578414031 938.733287331853 568.3314642300609L938.733287331853 568.3314642300609Q937.6960226646319 565.421360580357 937.6960226646319 559.4282758364125L937.6960226646319 559.4282758364125Q947.6652886329242 559.8316565403319 960.5158453434975 559.8316565403319L960.5158453434975 559.8316565403319Q968.6122723293071 559.8316565403319 983.5373583743227 559.4282758364125L983.5373583743227 559.4282758364125Q983.5373583743227 564.6145991725184 982.5000937071015 568.3314642300609L982.5000937071015 568.3314642300609Q977.1120800190361 568.7636578414031 974.5189183509832 570.0026128605839Q971.9257566829302 571.2415678797647 971.9257566829302 574.1516715294686L971.9257566829302 574.1516715294686Q971.9257566829302 577.868536587011 975.8731249998552 584.9276989055995L975.8731249998552 584.9276989055995Q990.3948303409516 611.8965802533497 1001.8047416803844 638.0298872858384L1001.8047416803844 638.0298872858384Q1018.8043570598423 604.8374179347612 1027.332977656994 585.7632732208609L1027.332977656994 585.7632732208609Q1029.8108876953556 580.1735691808358 1029.8108876953556 576.2262008639109L1029.8108876953556 576.2262008639109Q1029.8108876953556 569.1670385453224 1021.1093896536671 568.3314642300609L1021.1093896536671 568.3314642300609Q1020.0721249864459 565.421360580357 1020.0721249864459 559.4282758364125L1020.0721249864459 559.4282758364125Q1030.4447716586576 559.8316565403319 1036.2361660506424 559.8316565403319L1036.2361660506424 559.8316565403319ZM1079.8012820739314 663.9615039663676Q1079.8012820739314 657.5362256110809 1080.8385467411524 654.6261219613771L1080.8385467411524 654.6261219613771Q1086.0248700772581 654.2227412574578 1088.6180317453113 652.9837862382769Q1091.211193413364 651.7448312190961 1092.2484580805854 648.6330372174325Q1093.2857227478062 645.5212432157691 1093.2857227478062 639.2976552124421L1093.2857227478062 639.2976552124421L1093.2857227478062 583.8904342383782Q1093.2857227478062 577.868536587011 1092.2484580805854 574.7567425853475Q1091.211193413364 571.644948583684 1088.6180317453113 570.4059935645032Q1086.0248700772581 569.1670385453224 1080.8385467411524 568.7636578414031L1080.8385467411524 568.7636578414031Q1079.8012820739314 565.6518638397395 1079.8012820739314 559.4282758364125L1079.8012820739314 559.4282758364125Q1093.0840323958469 559.8316565403319 1103.053298364139 559.8316565403319L1103.053298364139 559.8316565403319Q1111.3514157019083 559.8316565403319 1125.8731210430046 559.4282758364125L1125.8731210430046 559.4282758364125Q1125.8731210430046 565.8535541916992 1125.0375467277431 568.7636578414031L1125.0375467277431 568.7636578414031Q1117.5750037052353 569.1670385453224 1114.9818420371826 572.0771421950262Q1112.3886803691294 574.9872458447301 1112.3886803691294 583.8904342383782L1112.3886803691294 583.8904342383782L1112.3886803691294 639.2976552124421Q1112.3886803691294 648.2008436060904 1114.9818420371826 651.2261988854855Q1117.5750037052353 654.2227412574578 1125.0375467277431 654.6261219613771L1125.0375467277431 654.6261219613771Q1125.8731210430046 657.7379159630406 1125.8731210430046 663.9615039663676L1125.8731210430046 663.9615039663676Q1111.7547964058276 663.5581232624481 1103.053298364139 663.5581232624481L1103.053298364139 663.5581232624481Q1092.6806516919273 663.5581232624481 1079.8012820739314 663.9615039663676L1079.8012820739314 663.9615039663676ZM1157.394441763559 663.9615039663676Q1157.394441763559 657.5362256110809 1158.43170643078 654.6261219613771L1158.43170643078 654.6261219613771Q1163.4163394149261 654.2227412574578 1166.0959398052473 652.9837862382769Q1168.8043531029916 651.7448312190961 1169.956869399904 648.4025339580501Q1171.0805727893935 645.0890496044269 1171.0805727893935 638.4620808971806L1171.0805727893935 638.4620808971806L1171.0805727893935 583.8904342383782Q1171.0805727893935 577.868536587011 1169.956869399904 574.7567425853475Q1168.8043531029916 571.644948583684 1166.2111914349389 570.4059935645032Q1163.6180297668857 569.1670385453224 1158.43170643078 568.7636578414031L1158.43170643078 568.7636578414031Q1157.5961321155187 565.421360580357 1157.5961321155187 559.4282758364125L1157.5961321155187 559.4282758364125Q1169.207733806911 559.8316565403319 1184.363323111309 559.8316565403319L1184.363323111309 559.8316565403319Q1191.220795077938 559.8316565403319 1194.7359697835207 559.6299661883722L1194.7359697835207 559.6299661883722L1205.742500419034 559.4282758364125Q1235.823175768448 559.4282758364125 1255.2142624639991 570.0026128605839Q1274.6053491595503 580.5769498847551 1274.6053491595503 608.9864766036459L1274.6053491595503 608.9864766036459Q1274.6053491595503 641.3721845468845 1252.621100795946 652.4651539046663Q1230.636852432342 663.5581232624481 1205.5119971596516 663.5581232624481L1205.5119971596516 663.5581232624481Q1175.6618250696206 663.5581232624481 1157.394441763559 663.9615039663676L1157.394441763559 663.9615039663676ZM1206.3475714749131 654.2227412574578Q1221.3014704273514 654.2227412574578 1231.5588654698718 650.7940052741433Q1241.8162605123925 647.3652692908289 1247.9534097934506 638.0298872858384Q1254.0617461670868 628.694505280848 1254.0617461670868 611.6948899013901L1254.0617461670868 611.6948899013901Q1254.0617461670868 588.6733768705648 1239.6552924556815 578.5024205503128Q1225.220025836854 568.3314642300609 1203.03408712129 568.3314642300609L1203.03408712129 568.3314642300609Q1194.5342794315611 568.3314642300609 1190.1835304107167 569.5704192492417L1190.1835304107167 569.5704192492417L1190.1835304107167 638.0298872858384Q1190.1835304107167 644.6856689005076 1191.4224854298977 648.114404883822Q1192.6614404490783 651.5143279597136 1196.0901764323926 652.8685346085856Q1199.5189124157073 654.2227412574578 1206.3475714749131 654.2227412574578L1206.3475714749131 654.2227412574578ZM1314.6552904772561 520.4155991859277L1314.6552904772561 522.2884381684103Q1312.984141846733 534.1017302117625 1310.909612512291 564.6145991725184L1310.909612512291 564.6145991725184Q1308.4317024739294 564.6145991725184 1305.9249795281448 564.0959668389078Q1303.4470694897832 563.5773345052971 1302.6114951745217 562.5400698380761L1302.6114951745217 562.5400698380761Q1301.5742305073004 538.4524792326067 1298.462436505637 519.7817152226258L1298.462436505637 519.7817152226258Q1301.3725401553409 519.3783345187065 1304.6860245089638 518.1393794995257Q1307.999508862587 516.9004244803448 1310.2757285489893 515.4309662017815L1310.2757285489893 515.4309662017815Q1312.1485675314716 515.8631598131237 1313.301083828384 517.1021148323046Q1314.424787217874 518.3410698514854 1314.6552904772561 520.4155991859277L1314.6552904772561 520.4155991859277ZM1385.996049256134 664.9987686335887Q1374.5861379167013 664.9987686335887 1365.3660075414018 662.7225489471867Q1356.1458771661028 660.4463292607848 1345.341036882549 655.8938898879808L1345.341036882549 655.8938898879808Q1347.617256568951 641.9772556027634 1347.012185513072 631.8062992825114L1347.012185513072 631.8062992825114Q1351.5646248858761 630.365653911371 1358.220406500545 630.365653911371L1358.220406500545 630.365653911371Q1358.6237872044644 643.2162106219442 1366.403272208623 649.0364179213519Q1374.1827572127818 654.8566252207595 1388.3010818499588 654.8566252207595L1388.3010818499588 654.8566252207595Q1400.3160642452708 654.8566252207595 1407.259974934168 651.1109472557943Q1414.232698530488 647.3652692908289 1414.232698530488 641.1416812875019L1414.232698530488 641.1416812875019Q1414.232698530488 636.7909322666576 1410.8039625471736 633.5926995427258Q1407.375226563859 630.365653911371 1402.5058452094042 628.1758729472374Q1397.6364638549494 626.0149048905266 1388.3010818499588 622.7014205369035L1388.3010818499588 622.7014205369035Q1375.4217122319628 618.3218586086364 1367.6422272278041 614.4897419214026Q1359.8627422236452 610.6576252341689 1354.1577865539289 603.9154048972314Q1348.4528308842125 597.1731845602937 1348.4528308842125 587.0022282400419L1348.4528308842125 587.0022282400419Q1348.4528308842125 573.1144068622473 1358.9407291861153 565.8535541916992Q1369.3998145805954 558.5927015211511 1387.667197886657 558.5927015211511L1387.667197886657 558.5927015211511Q1397.4059605955667 558.5927015211511 1407.0582845822082 560.4655405036337Q1416.7106085688497 562.3095665786935 1422.098622256915 565.2196702283974L1422.098622256915 565.2196702283974Q1421.8969319049554 567.4958899147994 1421.8969319049554 572.2788325469858L1421.8969319049554 572.2788325469858Q1421.8969319049554 581.6142145519764 1423.1358869241362 587.0022282400419L1423.1358869241362 587.0022282400419Q1418.785137903292 589.2784479264437 1411.7259755847035 589.2784479264437L1411.7259755847035 589.2784479264437Q1408.8158719349997 577.4651558830917 1402.3041548574447 572.7974648805964Q1395.7636248724666 568.1297738781012 1386.2265525155167 568.1297738781012L1386.2265525155167 568.1297738781012Q1377.0928608624858 568.1297738781012 1371.3879051927693 571.2415678797647Q1365.682949523053 574.3533618814281 1365.682949523053 580.3752595327954L1365.682949523053 580.3752595327954Q1365.682949523053 587.2039185920014 1372.3099182302994 591.3529772608861Q1378.9656998449684 595.5020359297707 1393.0552115747225 600.4866689139169L1393.0552115747225 600.4866689139169Q1405.0990068774572 604.6357275828016 1412.7632402519246 608.3814055477669Q1420.4562865338148 612.0982706053094 1425.8443002218805 618.4371102383276Q1431.2323139099458 624.7759498713458 1431.2323139099458 634.313022228296L1431.2323139099458 634.313022228296Q1431.2323139099458 647.9991532541308 1420.0240929224728 656.4989609438597Q1408.8158719349997 664.9987686335887 1385.996049256134 664.9987686335887L1385.996049256134 664.9987686335887ZM1563.5988106103355 665.4309622449308Q1543.458588321791 665.4309622449308 1527.8996183134736 655.9803286102491Q1512.3406483051563 646.5585078829902 1503.725588985736 630.0487119297201Q1495.1393425737388 613.5677288838726 1495.1393425737388 593.0241258914091L1495.1393425737388 593.0241258914091Q1495.1393425737388 572.2788325469858 1504.157782597078 555.9995398530982Q1513.1762226204178 539.7202471592104 1528.8504442584263 530.5865555061796Q1544.4958529890123 521.4528638531489 1563.5988106103355 521.4528638531489L1563.5988106103355 521.4528638531489Q1583.3068392875375 521.4528638531489 1598.952248018123 530.4713038764884Q1614.626469656132 539.489743899828 1623.443219327512 555.7978495011384Q1632.259968998892 572.0771421950262 1632.259968998892 593.0241258914091L1632.259968998892 593.0241258914091Q1632.259968998892 613.3660385319131 1623.443219327512 629.8470215777604Q1614.626469656132 646.3280046236077 1598.952248018123 655.8938898879808Q1583.3068392875375 665.4309622449308 1563.5988106103355 665.4309622449308L1563.5988106103355 665.4309622449308ZM1567.7478692792201 655.2600059246789Q1580.800116341753 655.2600059246789 1590.6541306803542 647.7974629021711Q1600.508145018955 640.3349198796633 1605.694468355061 627.3691115393988Q1610.880791691167 614.4033031991341 1610.880791691167 598.4121395794746L1610.880791691167 598.4121395794746Q1610.880791691167 579.9430659214534 1604.138571354229 564.6145991725184Q1597.3963510172916 549.2573195161606 1585.5830589739394 540.3253182150895Q1573.7409540231647 531.4221298214411 1559.2192486820682 531.4221298214411L1559.2192486820682 531.4221298214411Q1547.0025759347968 531.4221298214411 1537.2350003184642 538.4524792326067Q1527.496237609554 545.5116415511952 1521.9929722917977 558.1605079098089Q1516.489706974041 570.8381871758454 1516.489706974041 587.434421851384L1516.489706974041 587.434421851384Q1516.489706974041 605.2696115461033 1522.6268562550995 620.8285815544209Q1528.7351926287351 636.3875515627383 1540.3467943201276 645.8093722899972Q1551.95839601152 655.2600059246789 1567.7478692792201 655.2600059246789L1567.7478692792201 655.2600059246789ZM1755.89615475017 559.8316565403319Q1763.7908913840197 559.8316565403319 1773.32796374097 559.4282758364125L1773.32796374097 559.4282758364125Q1773.32796374097 565.6518638397395 1772.4923894257086 568.7636578414031L1772.4923894257086 568.7636578414031Q1768.1416404048641 569.1670385453224 1765.8654207184622 571.039877527805Q1763.5603881246375 572.9127165102877 1762.6383750871073 577.3499042534004Q1761.7163620495776 581.8159049039359 1761.7163620495776 590.5462158530474L1761.7163620495776 590.5462158530474L1761.7163620495776 663.7598136144079Q1759.0079487518333 664.9987686335887 1753.1877414524256 664.9987686335887L1753.1877414524256 664.9987686335887L1678.7351886718843 582.6514792191974L1678.7351886718843 632.4401832458133Q1678.7351886718843 641.3721845468845 1679.8588920613743 645.9246239196884Q1681.0114083582866 650.4770632924924 1683.6910087486076 652.3499022749751Q1686.399422046352 654.2227412574578 1691.5857453824578 654.6261219613771L1691.5857453824578 654.6261219613771Q1692.6230100496791 657.968419222423 1692.6230100496791 663.9615039663676L1692.6230100496791 663.9615039663676Q1681.4147890622057 663.5581232624481 1674.1539363916577 663.5581232624481L1674.1539363916577 663.5581232624481Q1664.415173682748 663.5581232624481 1655.2814820297172 663.9615039663676L1655.2814820297172 663.9615039663676Q1655.2814820297172 657.968419222423 1656.3187466969384 654.6261219613771L1656.3187466969384 654.6261219613771Q1661.505070033044 654.2227412574578 1664.0982317010971 652.3499022749751Q1666.6913933691499 650.4770632924924 1667.8439096660622 645.9246239196884Q1668.9676130555517 641.3721845468845 1668.9676130555517 632.4401832458133L1668.9676130555517 632.4401832458133L1668.9676130555517 571.8754518430665L1668.7659227035924 571.644948583684Q1667.3252773324516 570.2043032125434 1665.0202447386268 569.6856708789329Q1662.744025052225 569.1670385453224 1656.3187466969384 568.7636578414031L1656.3187466969384 568.7636578414031Q1655.2814820297172 565.0179798764377 1655.2814820297172 559.4282758364125L1655.2814820297172 559.4282758364125Q1662.744025052225 559.8316565403319 1669.8031873708132 559.8316565403319L1669.8031873708132 559.8316565403319Q1676.2284657260998 559.8316565403319 1682.884247340769 559.4282758364125L1682.884247340769 559.4282758364125L1751.948786433245 636.7909322666576L1751.948786433245 590.5462158530474Q1751.948786433245 581.8159049039359 1750.8250830437555 577.3499042534004Q1749.6725667468427 572.9127165102877 1746.9641534490988 571.039877527805Q1744.2845530587774 569.1670385453224 1738.8965393707117 568.7636578414031L1738.8965393707117 568.7636578414031Q1738.0609650554507 563.9807152092164 1738.0609650554507 559.4282758364125L1738.0609650554507 559.4282758364125Q1748.433611727662 559.8316565403319 1755.89615475017 559.8316565403319L1755.89615475017 559.8316565403319ZM1855.0701820994823 654.2227412574578Q1864.808944808392 654.2227412574578 1870.513900478108 652.2634635527066Q1876.2188561478247 650.2753729405327 1879.647592131139 646.0398755493796Q1883.0763281144536 641.7755652508038 1886.188122116117 634.1113318763363L1886.188122116117 634.1113318763363Q1891.777826156142 635.1485965435575 1895.293000861725 638.6637712491403L1895.293000861725 638.6637712491403Q1891.5761358041827 648.4025339580501 1889.7032968217 663.7598136144079L1889.7032968217 663.7598136144079L1852.9956527650397 663.5581232624481Q1823.116667767586 663.5581232624481 1804.8492844615243 663.9615039663676L1804.8492844615243 663.9615039663676Q1804.8492844615243 657.5362256110809 1805.8865491287452 654.6261219613771L1805.8865491287452 654.6261219613771Q1810.8711821128913 654.2227412574578 1813.5795954106356 652.9837862382769Q1816.259195800957 651.7448312190961 1817.4117120978694 648.4025339580501Q1818.535415487359 645.0890496044269 1818.535415487359 638.4620808971806L1818.535415487359 638.4620808971806L1818.535415487359 583.8904342383782Q1818.535415487359 577.868536587011 1817.4117120978694 574.7567425853475Q1816.259195800957 571.644948583684 1813.6660341329043 570.4059935645032Q1811.0728724648511 569.1670385453224 1805.8865491287452 568.7636578414031L1805.8865491287452 568.7636578414031Q1805.0509748134841 565.421360580357 1805.0509748134841 559.4282758364125L1805.0509748134841 559.4282758364125Q1820.0048737659222 559.8316565403319 1828.1013007517317 559.8316565403319L1828.1013007517317 559.8316565403319Q1836.6011084414608 559.8316565403319 1851.1228137825574 559.4282758364125L1851.1228137825574 559.4282758364125Q1851.1228137825574 565.6518638397395 1850.085549115336 568.7636578414031L1850.085549115336 568.7636578414031Q1842.824696444788 569.1670385453224 1840.2315347767349 572.1635809172947Q1837.6383731086821 575.1889361966896 1837.6383731086821 584.092124590338L1837.6383731086821 584.092124590338L1837.6383731086821 638.0298872858384Q1837.6383731086821 644.6856689005076 1838.8773281278632 648.114404883822Q1840.1162831470438 651.5143279597136 1843.545019130358 652.8685346085856Q1846.9737551136727 654.2227412574578 1853.8024141728783 654.2227412574578L1853.8024141728783 654.2227412574578L1855.0701820994823 654.2227412574578ZM1919.3805914671943 663.9615039663676Q1919.3805914671943 657.5362256110809 1920.4178561344152 654.6261219613771L1920.4178561344152 654.6261219613771Q1925.604179470521 654.2227412574578 1928.1973411385743 652.9837862382769Q1930.790502806627 651.7448312190961 1931.8277674738483 648.6330372174325Q1932.8650321410696 645.5212432157691 1932.8650321410696 639.2976552124421L1932.8650321410696 639.2976552124421L1932.8650321410696 583.8904342383782Q1932.8650321410696 577.868536587011 1931.8277674738483 574.7567425853475Q1930.790502806627 571.644948583684 1928.1973411385743 570.4059935645032Q1925.604179470521 569.1670385453224 1920.4178561344152 568.7636578414031L1920.4178561344152 568.7636578414031Q1919.3805914671943 565.6518638397395 1919.3805914671943 559.4282758364125L1919.3805914671943 559.4282758364125Q1932.634528881687 559.8316565403319 1942.6037948499793 559.8316565403319L1942.6037948499793 559.8316565403319Q1950.9019121877486 559.8316565403319 1965.4236175288447 559.4282758364125L1965.4236175288447 559.4282758364125Q1965.4236175288447 565.8535541916992 1964.5880432135832 568.7636578414031L1964.5880432135832 568.7636578414031Q1957.1255001910754 569.1670385453224 1954.5323385230226 572.0771421950262Q1951.9391768549694 574.9872458447301 1951.9391768549694 583.8904342383782L1951.9391768549694 583.8904342383782L1951.9391768549694 639.2976552124421Q1951.9391768549694 648.2008436060904 1954.5323385230226 651.2261988854855Q1957.1255001910754 654.2227412574578 1964.5880432135832 654.6261219613771L1964.5880432135832 654.6261219613771Q1965.4236175288447 657.7379159630406 1965.4236175288447 663.9615039663676L1965.4236175288447 663.9615039663676Q1951.3052928916677 663.5581232624481 1942.6037948499793 663.5581232624481L1942.6037948499793 663.5581232624481Q1932.2311481777674 663.5581232624481 1919.3805914671943 663.9615039663676L1919.3805914671943 663.9615039663676ZM2097.5596109698517 559.8316565403319Q2105.454347603702 559.8316565403319 2114.991419960652 559.4282758364125L2114.991419960652 559.4282758364125Q2114.991419960652 565.6518638397395 2114.1558456453904 568.7636578414031L2114.1558456453904 568.7636578414031Q2109.805096624546 569.1670385453224 2107.528876938144 571.039877527805Q2105.252657251742 572.9127165102877 2104.3018313067896 577.3499042534004Q2103.3798182692594 581.8159049039359 2103.3798182692594 590.5462158530474L2103.3798182692594 590.5462158530474L2103.3798182692594 663.7598136144079Q2100.671404971515 664.9987686335887 2094.8800105795303 664.9987686335887L2094.8800105795303 664.9987686335887L2020.3986448915666 582.6514792191974L2020.3986448915666 632.4401832458133Q2020.3986448915666 641.3721845468845 2021.551161188479 645.9246239196884Q2022.6748645779685 650.4770632924924 2025.3832778757123 652.3499022749751Q2028.0628782660337 654.2227412574578 2033.2492016021397 654.6261219613771L2033.2492016021397 654.6261219613771Q2034.286466269361 657.968419222423 2034.286466269361 663.9615039663676L2034.286466269361 663.9615039663676Q2023.1070581893105 663.5581232624481 2015.8462055187624 663.5581232624481L2015.8462055187624 663.5581232624481Q2006.0786299024298 663.5581232624481 1996.944938249399 663.9615039663676L1996.944938249399 663.9615039663676Q1996.944938249399 657.968419222423 1997.9822029166203 654.6261219613771L1997.9822029166203 654.6261219613771Q2003.1685262527262 654.2227412574578 2005.761687920779 652.3499022749751Q2008.3548495888317 650.4770632924924 2009.507365885744 645.9246239196884Q2010.6598821826565 641.3721845468845 2010.6598821826565 632.4401832458133L2010.6598821826565 632.4401832458133L2010.6598821826565 571.8754518430665L2010.4293789232743 571.644948583684Q2008.9887335521335 570.2043032125434 2006.7125138657316 569.6856708789329Q2004.4362941793297 569.1670385453224 1997.9822029166203 568.7636578414031L1997.9822029166203 568.7636578414031Q1996.944938249399 565.0179798764377 1996.944938249399 559.4282758364125L1996.944938249399 559.4282758364125Q2004.4362941793297 559.8316565403319 2011.4666435904956 559.8316565403319L2011.4666435904956 559.8316565403319Q2017.920734853205 559.8316565403319 2024.5477035604513 559.4282758364125L2024.5477035604513 559.4282758364125L2093.6410555603497 636.7909322666576L2093.6410555603497 590.5462158530474Q2093.6410555603497 581.8159049039359 2092.4885392634374 577.3499042534004Q2091.336022966525 572.9127165102877 2088.6564225762036 571.039877527805Q2085.9480092784593 569.1670385453224 2080.559995590394 568.7636578414031L2080.559995590394 568.7636578414031Q2079.7244212751325 563.9807152092164 2079.7244212751325 559.4282758364125L2079.7244212751325 559.4282758364125Q2090.097067947344 559.8316565403319 2097.5596109698517 559.8316565403319L2097.5596109698517 559.8316565403319ZM2231.165062689422 634.1113318763363Q2236.7835796368704 635.1485965435575 2240.2987543424533 638.6637712491403L2240.2987543424533 638.6637712491403Q2236.5530763774877 648.4025339580501 2234.709050302428 663.7598136144079L2234.709050302428 663.7598136144079L2194.659108984722 663.5581232624481Q2164.780123987268 663.5581232624481 2146.541553588629 663.9615039663676L2146.541553588629 663.9615039663676Q2146.541553588629 657.5362256110809 2147.5788182558504 654.6261219613771L2147.5788182558504 654.6261219613771Q2152.765141591956 654.2227412574578 2155.3583032600086 652.9837862382769Q2157.951464928062 651.7448312190961 2158.988729595283 648.4025339580501Q2160.0259942625044 645.0890496044269 2160.0259942625044 638.4620808971806L2160.0259942625044 638.4620808971806L2160.0259942625044 583.8904342383782Q2160.0259942625044 577.868536587011 2158.8734779655915 574.7567425853475Q2157.720961668679 571.644948583684 2155.1278000006264 570.4059935645032Q2152.5346383325736 569.1670385453224 2147.5788182558504 568.7636578414031L2147.5788182558504 568.7636578414031Q2146.541553588629 565.6518638397395 2146.541553588629 559.4282758364125L2146.541553588629 559.4282758364125Q2161.4666396336447 559.8316565403319 2179.100138976404 559.8316565403319L2179.100138976404 559.8316565403319Q2217.2772413116277 559.8316565403319 2230.1277980222007 559.4282758364125L2230.1277980222007 559.4282758364125Q2232.404017708603 578.9058012542321 2234.075166339126 585.1293892575591L2234.075166339126 585.1293892575591Q2230.559991633543 587.434421851384 2224.7397843341355 587.434421851384L2224.7397843341355 587.434421851384Q2223.904210018874 578.7041109022725 2217.5941832932785 573.7194779181264Q2211.2553436602607 568.7636578414031 2195.2929929480238 568.7636578414031L2195.2929929480238 568.7636578414031L2179.100138976404 568.7636578414031L2179.100138976404 606.9119472692036L2189.472785648616 606.9119472692036Q2200.4793162841297 606.9119472692036 2204.7148136752826 604.4340372308419Q2208.9791239738583 601.9561271924802 2209.180814325818 595.3003455778111L2209.180814325818 595.3003455778111Q2213.733253698622 593.8597002066706 2218.7178866827685 593.8597002066706L2218.7178866827685 593.8597002066706Q2218.314505978849 599.0460235427764 2218.314505978849 611.2915091974708L2218.314505978849 611.2915091974708Q2218.314505978849 624.5454466119634 2218.7178866827685 629.3283892441498L2218.7178866827685 629.3283892441498Q2213.128182642743 629.3283892441498 2209.584195029737 628.089434224969L2209.584195029737 628.089434224969Q2208.9791239738583 621.2319622583402 2204.7148136752826 618.7540522199786Q2200.4793162841297 616.247329274194 2189.472785648616 616.247329274194L2189.472785648616 616.247329274194L2179.100138976404 616.247329274194L2179.100138976404 638.0298872858384Q2179.100138976404 644.6856689005076 2180.4543456252763 648.114404883822Q2181.8085522741485 651.5143279597136 2185.2084753500403 652.8685346085856Q2188.6372113333546 654.2227412574578 2195.494683299983 654.2227412574578L2195.494683299983 654.2227412574578L2196.733638319164 654.2227412574578Q2208.777433621899 654.2227412574578 2215.289150699454 652.1482119230154Q2221.829680684432 650.0736825885731 2225.0567263157864 646.0398755493796Q2228.2549590397184 641.9772556027634 2231.165062689422 634.1113318763363L2231.165062689422 634.1113318763363ZM2350.6521897718158 665.4309622449308Q2338.6372073765037 665.4309622449308 2329.100135019554 662.2039166135761Q2319.5342497551806 659.0056838896442 2308.5565320270903 652.1482119230154L2308.5565320270903 652.1482119230154Q2310.4293710095726 640.536610231623 2310.4293710095726 622.7014205369035L2310.4293710095726 622.7014205369035Q2315.183500734336 621.4336526102999 2321.608779089623 621.4336526102999L2321.608779089623 621.4336526102999Q2322.4443534048846 638.0298872858384 2330.022148057084 646.7601982349499Q2337.599942709283 655.4616962766386 2353.5622934215194 655.4616962766386L2353.5622934215194 655.4616962766386Q2367.0467340953946 655.4616962766386 2373.5872640803723 649.5550502549625Q2380.127794065351 643.6484042332864 2380.127794065351 633.8808286169537L2380.127794065351 633.8808286169537Q2380.127794065351 625.813214538567 2375.9787353964657 620.1946975911189Q2371.8296767275815 614.6049935510939 2365.8077790762136 610.9745672158198Q2359.785881424846 607.3441408805456 2349.009854048715 602.3595078963996L2349.009854048715 602.3595078963996Q2336.5626780420616 596.3376102450322 2329.100135019554 591.5834805202686Q2321.608779089623 586.8005378880821 2316.336017031249 578.8193625319637Q2311.034442065452 570.8381871758454 2311.034442065452 558.7943918731107L2311.034442065452 558.7943918731107Q2311.034442065452 541.3625828823106 2322.242663052925 531.4221298214411Q2333.4508840403983 521.4528638531489 2352.7267191062583 521.4528638531489L2352.7267191062583 521.4528638531489Q2362.89767542651 521.4528638531489 2372.2330574315 524.0460255212017Q2381.568439436491 526.6391871892547 2387.3886467358984 530.5865555061796L2387.3886467358984 530.5865555061796Q2387.3886467358984 549.0556291642009 2388.6276017550795 557.9588175578492L2388.6276017550795 557.9588175578492Q2384.0751623822757 559.8316565403319 2377.016000063687 559.8316565403319L2377.016000063687 559.8316565403319Q2374.105896413983 542.8320411608739 2368.2856891145752 536.6948918798154Q2362.4942947225904 530.5865555061796 2352.5250287542985 530.5865555061796L2352.5250287542985 530.5865555061796Q2341.547311026208 530.5865555061796 2335.3237230228806 535.9745691942451Q2329.100135019554 541.3625828823106 2329.100135019554 551.1301584986431L2329.100135019554 551.1301584986431Q2329.100135019554 559.19777257703 2333.3356324107067 565.0179798764377Q2337.599942709283 570.8381871758454 2343.7082790829186 574.5550522333879Q2349.845428363977 578.3007301983532 2360.6214557401076 583.6887438864187L2360.6214557401076 583.6887438864187Q2372.866941394802 589.5089511858263 2380.2142327876186 594.2630809105899Q2387.5903370878577 599.0460235427764 2392.776660423964 606.7102569172439Q2397.9629837600696 614.4033031991341 2397.9629837600696 625.5827112791844L2397.9629837600696 625.5827112791844Q2397.9629837600696 636.3875515627383 2392.8919120536552 645.4059915860778Q2387.792027439818 654.4244316094174 2377.102438785955 659.9276969271741Q2366.441663039516 665.4309622449308 2350.6521897718158 665.4309622449308L2350.6521897718158 665.4309622449308ZM2530.0989772010767 639.9027262683211Q2530.0989772010767 648.8347275693923 2532.69213886913 651.8312699413646Q2535.2853005371826 654.8566252207595 2542.5461532077306 655.2600059246789L2542.5461532077306 655.2600059246789Q2543.583417874952 657.7379159630406 2543.583417874952 663.9615039663676L2543.583417874952 663.9615039663676Q2529.493906145198 663.5581232624481 2520.7635951960865 663.5581232624481L2520.7635951960865 663.5581232624481Q2510.3909485238746 663.5581232624481 2497.5403918133015 663.9615039663676L2497.5403918133015 663.9615039663676Q2497.5403918133015 657.7379159630406 2498.577656480523 655.2600059246789L2498.577656480523 655.2600059246789Q2505.838509151071 654.8566252207595 2508.4316708191236 651.8312699413646Q2511.0248324871764 648.8347275693923 2511.0248324871764 639.9027262683211L2511.0248324871764 639.9027262683211L2511.0248324871764 614.6049935510939Q2471.205394428853 614.6049935510939 2457.288760143636 615.642258218315L2457.288760143636 615.642258218315L2457.288760143636 639.9027262683211Q2457.288760143636 648.8347275693923 2459.8819218116887 651.8312699413646Q2462.4750834797414 654.8566252207595 2469.9376265022493 655.2600059246789L2469.9376265022493 655.2600059246789Q2470.7732008175108 657.968419222423 2470.7732008175108 663.9615039663676L2470.7732008175108 663.9615039663676Q2456.6836890877566 663.5581232624481 2447.9533781386453 663.5581232624481L2447.9533781386453 663.5581232624481Q2437.5807314664335 663.5581232624481 2424.73017475586 663.9615039663676L2424.73017475586 663.9615039663676Q2424.73017475586 657.7379159630406 2425.7674394230817 655.2600059246789L2425.7674394230817 655.2600059246789Q2430.9537627591876 654.8566252207595 2433.5469244272404 653.5888572941559Q2436.140086095293 652.3499022749751 2437.1773507625144 649.2381082733116Q2438.2146154297357 646.1263142716481 2438.2146154297357 639.9027262683211L2438.2146154297357 639.9027262683211L2438.2146154297357 583.2853631824993Q2438.2146154297357 577.2634655311319 2437.1773507625144 574.1516715294686Q2436.140086095293 571.039877527805 2433.5469244272404 569.8009225086241Q2430.9537627591876 568.5331545820205 2425.7674394230817 568.1297738781012L2425.7674394230817 568.1297738781012Q2424.73017475586 565.2196702283974 2424.73017475586 559.4282758364125L2424.73017475586 559.4282758364125Q2438.012925077776 559.8316565403319 2447.9533781386453 559.8316565403319L2447.9533781386453 559.8316565403319Q2456.2514954764147 559.8316565403319 2470.7732008175108 559.4282758364125L2470.7732008175108 559.4282758364125Q2470.7732008175108 565.421360580357 2469.9376265022493 568.1297738781012L2469.9376265022493 568.1297738781012Q2462.4750834797414 568.5331545820205 2459.8819218116887 571.4432582317244Q2457.288760143636 574.3533618814281 2457.288760143636 583.2853631824993L2457.288760143636 583.2853631824993L2457.288760143636 605.4713018980631L2511.0248324871764 605.4713018980631L2511.0248324871764 583.2853631824993Q2511.0248324871764 577.2634655311319 2509.872316190264 574.1516715294686Q2508.748612800775 571.039877527805 2506.1554511327217 569.8009225086241Q2503.5622894646685 568.5331545820205 2498.375966128563 568.1297738781012L2498.375966128563 568.1297738781012Q2497.5403918133015 565.0179798764377 2497.5403918133015 559.4282758364125L2497.5403918133015 559.4282758364125Q2510.823142135217 559.8316565403319 2520.5619048441267 559.8316565403319L2520.5619048441267 559.8316565403319Q2529.061712533856 559.8316565403319 2543.583417874952 559.4282758364125L2543.583417874952 559.4282758364125Q2543.583417874952 564.816289524478 2542.5461532077306 568.1297738781012L2542.5461532077306 568.1297738781012Q2535.0836101852233 568.5331545820205 2532.605700146861 571.4432582317244Q2530.0989772010767 574.3533618814281 2530.0989772010767 583.2853631824993L2530.0989772010767 583.2853631824993L2530.0989772010767 639.9027262683211ZM2631.145843532872 665.4309622449308Q2613.3106538381526 665.4309622449308 2599.5957099048946 658.7751806302617Q2585.90957887906 652.1482119230154 2578.331784226861 640.1044166202807Q2570.7828024820847 628.089434224969 2570.7828024820847 612.0982706053094L2570.7828024820847 612.0982706053094Q2570.7828024820847 596.3376102450322 2578.331784226861 584.092124590338Q2585.90957887906 571.8754518430665 2599.710961534586 565.1332315061289Q2613.5123441901123 558.3910111691914 2631.5492242367914 558.3910111691914L2631.5492242367914 558.3910111691914Q2649.3844139315106 558.3910111691914 2663.099357864768 565.0179798764377Q2676.7854888906027 571.644948583684 2684.363283542802 583.8039955161098Q2691.912265287578 595.9342295411129 2691.912265287578 611.6948899013901L2691.912265287578 611.6948899013901Q2691.912265287578 627.6572406136268 2684.363283542802 639.8162875460526Q2676.7854888906027 651.9465215710557 2662.984106235077 658.6887419079933Q2649.182723579551 665.4309622449308 2631.145843532872 665.4309622449308L2631.145843532872 665.4309622449308ZM2634.055947182576 655.8938898879808Q2650.853872210074 655.8938898879808 2660.707886548675 644.6856689005076Q2670.5619008872764 633.4774479130344 2670.5619008872764 614.8066839030535L2670.5619008872764 614.8066839030535Q2670.5619008872764 601.3222432291784 2665.1738871992106 590.6326545753159Q2659.7570606037225 579.9430659214534 2650.1335495245035 573.9499811775088Q2640.4812255378624 567.9280835261416 2628.4374302351275 567.9280835261416L2628.4374302351275 567.9280835261416Q2611.639505207629 567.9280835261416 2601.9007424987194 579.2227432358831Q2592.1331668823873 590.5462158530474 2592.1331668823873 608.9864766036459L2592.1331668823873 608.9864766036459Q2592.1331668823873 622.9031108888631 2597.5211805704525 633.5926995427258Q2602.9380071659407 644.2534752891654 2612.475079522891 650.0736825885731Q2622.012151879841 655.8938898879808 2634.055947182576 655.8938898879808L2634.055947182576 655.8938898879808ZM2765.7885599196634 617.9184779047171Q2776.766277647754 617.9184779047171 2783.7101883366513 612.5304642166516Q2790.6829119329714 607.1424505285861 2790.6829119329714 594.6952745219321L2790.6829119329714 594.6952745219321Q2790.6829119329714 582.8531695711572 2783.3068076327318 575.9092588822599Q2775.9307033324926 568.9653481933626 2760.8039269355177 568.9653481933626L2760.8039269355177 568.9653481933626Q2756.8565586185923 568.9653481933626 2751.6702352824864 570.2043032125434L2751.6702352824864 570.2043032125434L2751.6702352824864 636.9926226186174Q2751.6702352824864 646.7601982349499 2755.415913247452 650.4770632924924Q2759.132778304994 654.2227412574578 2768.266469958025 654.6261219613771L2768.266469958025 654.6261219613771Q2769.303734625246 657.7379159630406 2769.303734625246 663.9615039663676L2769.303734625246 663.9615039663676Q2757.692132933854 663.5581232624481 2745.2449569272 663.5581232624481L2745.2449569272 663.5581232624481Q2729.4842965669227 663.5581232624481 2719.1116498947113 663.9615039663676L2719.1116498947113 663.9615039663676Q2719.1116498947113 657.5362256110809 2720.1489145619325 654.6261219613771L2720.1489145619325 654.6261219613771Q2727.4097672324806 654.2227412574578 2730.0029289005333 651.2261988854855Q2732.596090568586 648.2008436060904 2732.596090568586 639.2976552124421L2732.596090568586 639.2976552124421L2732.596090568586 583.8904342383782Q2732.596090568586 577.868536587011 2731.558825901365 574.7567425853475Q2730.521561234144 571.644948583684 2727.928399566091 570.4059935645032Q2725.335237898038 569.1670385453224 2720.1489145619325 568.7636578414031L2720.1489145619325 568.7636578414031Q2719.1116498947113 565.6518638397395 2719.1116498947113 559.4282758364125L2719.1116498947113 559.4282758364125Q2738.5891753125306 559.8316565403319 2744.611072963898 559.8316565403319L2744.611072963898 559.8316565403319L2769.505424977206 559.4282758364125Q2790.884602284931 559.4282758364125 2800.8250553458006 568.3314642300609Q2810.7943213140925 577.2634655311319 2810.7943213140925 591.1512869089264L2810.7943213140925 591.1512869089264Q2810.7943213140925 601.1205528772188 2806.011378681906 609.418670214988Q2801.2572489571426 617.7167875527573 2791.8066153224613 622.7014205369035Q2782.384794595202 627.6572406136268 2769.102044273287 627.6572406136268L2769.102044273287 627.6572406136268Q2761.0056172874765 627.6572406136268 2756.4531779146732 626.2165952424864L2756.4531779146732 626.2165952424864Q2756.020984303331 623.3064915927825 2756.020984303331 621.865846221642L2756.020984303331 621.865846221642Q2756.020984303331 619.1574329238979 2756.6548682666325 617.2845939414152L2756.6548682666325 617.2845939414152Q2759.766662268296 617.9184779047171 2765.7885599196634 617.9184779047171L2765.7885599196634 617.9184779047171Z " fill="#ec8b5e" transform="matrix(0.31129991324744277,0,0,0.31129991324744277,0,116.19890144585241)"/></g></svg>